<svg width="15" height="14" viewBox="0 0 15 14" fill="none" xmlns="http://www.w3.org/2000/svg">
<path d="M3.3 8.8H2.7C2.38174 8.8 2.07652 8.67357 1.85147 8.44853C1.62643 8.22348 1.5 7.91826 1.5 7.6V2.2C1.5 1.88174 1.62643 1.57652 1.85147 1.35147C2.07652 1.12643 2.38174 1 2.7 1H8.1C8.41826 1 8.72348 1.12643 8.94853 1.35147C9.17357 1.57652 9.3 1.88174 9.3 2.2V2.8M6.9 5.2H12.3C12.9627 5.2 13.5 5.73726 13.5 6.4V11.8C13.5 12.4627 12.9627 13 12.3 13H6.9C6.23726 13 5.7 12.4627 5.7 11.8V6.4C5.7 5.73726 6.23726 5.2 6.9 5.2Z" stroke="#919191" stroke-width="1.5" stroke-linecap="round" stroke-linejoin="round"/>
</svg>
